#N canvas 786 54 450 300 12;
#X obj 57 38 tgl 15 0 empty empty empty 17 7 0 10 -262144 -1 -1 0 1
;
#X obj 56 58 del 100;
#X obj 115 58 del 100;
#X obj 174 59 del 100;
#X obj 232 59 del 100;
#X obj 56 87 bng 15 250 50 0 empty empty empty 17 7 0 10 -262144 -1
-1;
#X obj 115 88 bng 15 250 50 0 empty empty empty 17 7 0 10 -262144 -1
-1;
#X obj 174 89 bng 15 250 50 0 empty empty empty 17 7 0 10 -262144 -1
-1;
#X obj 232 89 bng 15 250 50 0 empty empty empty 17 7 0 10 -262144 -1
-1;
#X connect 0 0 1 0;
#X connect 1 0 5 0;
#X connect 1 0 2 0;
#X connect 2 0 6 0;
#X connect 2 0 3 0;
#X connect 3 0 7 0;
#X connect 3 0 4 0;
#X connect 4 0 8 0;
