#N canvas 116 80 450 269 10;
#X obj 39 208 dac~ 1 2;
#X text 35 32 Hello world!;
#X text 35 42 ============;
#X obj 39 167 *~ 0.1;
#X text 215 22 ............................;
#X text 215 32 . ____ ._____ _ .......___ .;
#X text 215 42 .| __ )| ____| |....../ _ |.;
#X text 215 62 .| |_) | |___| |___ / ___ |.;
#X text 215 72 .|____/|_____|_____/_/..._|.io;
#X text 215 82 ............................;
#X text 215 52 .| __ || __|.| |...../ _| |.;
#X obj 39 146 osc~ 660;
#X text 37 103 Run the patch!;
#X text 107 167 Sine Wave;
#X connect 3 0 0 1;
#X connect 3 0 0 0;
#X connect 11 0 3 0;
