#N canvas 569 236 450 419 12;
#X text 110 158 Analog Inputs 0 \, 1 \, 2 \, 3 \, 4 \, 5 \, 6 \, 7
;
#X obj 38 265 dac~ 1 2;
#X obj 38 224 *~ 0.1;
#X obj 38 203 osc~ 660;
#X obj 39 118 adc~ 3 4 5 6 7 8 9 10;
#X obj 40 168 *~ 1000;
#X connect 2 0 1 1;
#X connect 2 0 1 0;
#X connect 3 0 2 0;
#X connect 4 3 5 0;
#X connect 5 0 3 0;
