#N canvas 830 205 450 300 12;
#X obj 101 78 metro 1000;
#X obj 100 37 tgl 15 0 empty empty empty 17 7 0 10 -262144 -1 -1 0
1;
#X obj 101 117 f 0;
#X obj 141 116 + 1;
#X floatatom 103 157 5 0 0 0 - - -;
#X msg 139 34 500;
#X msg 176 34 250;
#X connect 0 0 2 0;
#X connect 1 0 0 0;
#X connect 2 0 4 0;
#X connect 2 0 3 0;
#X connect 3 0 2 1;
#X connect 5 0 0 1;
#X connect 6 0 0 1;
