#N canvas 736 165 450 300 12;
#X obj 98 114 delay 1000;
#X msg 88 23 bang;
#X msg 111 53 stop;
#X msg 139 82 2000;
#X floatatom 193 64 5 0 0 0 - - -;
#X obj 98 153 bng 15 250 50 0 empty empty empty 17 7 0 10 -262144 -1
-1;
#X connect 0 0 5 0;
#X connect 1 0 0 0;
#X connect 2 0 0 0;
#X connect 3 0 0 0;
#X connect 4 0 0 1;
