#N canvas 721 183 450 300 12;
#X obj 101 78 metro 1000;
#X msg 101 38 1;
#X msg 147 38 0;
#X obj 103 119 bng 15 250 50 0 empty empty empty 17 7 0 10 -262144
-1 -1;
#X connect 0 0 3 0;
#X connect 1 0 0 0;
#X connect 2 0 0 0;
