#N canvas 121 368 707 452 12;
#X msg 8 19 \; pd dsp \$1;
#X obj 8 -11 tgl 15 0 empty empty empty 17 7 0 10 -262144 -1 -1 0 1
;
#X obj 185 50 osc~ 440;
#X obj 185 154 env~;
#X obj 186 120 *~;
#X msg 264 85 0.2;
#X floatatom 187 209 5 0 0 0 - - -;
#X obj 263 23 vsl 15 50 0 0.5 0 0 empty empty empty 0 -9 0 10 -262144
-1 -1 0 1;
#X msg 302 86 0.5;
#X obj 236 261 vu 15 120 empty empty -1 -8 0 10 -66577 -1 1 0;
#X obj 235 208 - 100;
#X obj 291 211 dac~ 1 2;
#X text 322 360 Source: https://www.youtube.com/watch?v=OOLmCQgcQ6E
;
#X text 92 25 start here;
#X connect 1 0 0 0;
#X connect 2 0 4 0;
#X connect 3 0 6 0;
#X connect 3 0 10 0;
#X connect 4 0 3 0;
#X connect 4 0 11 0;
#X connect 4 0 11 1;
#X connect 5 0 4 1;
#X connect 7 0 4 1;
#X connect 8 0 4 1;
#X connect 10 0 9 0;
