#N canvas 222 71 615 492 12;
#X text 58 199 Digital out \, message rate;
#X text 88 318 Blink that LED!;
#X obj 64 149 s bela_setDigital;
#X obj 64 102 loadbang;
#X text 169 125 initialise the pin to output;
#X obj 60 358 s bela_digitalOut11;
#X text 461 23 ............................;
#X text 461 33 . ____ ._____ _ .......___ .;
#X text 461 43 .| __ )| ____| |....../ _ |.;
#X text 461 63 .| |_) | |___| |___ / ___ |.;
#X text 461 73 .|____/|_____|_____/_/..._|.io;
#X text 461 83 ............................;
#X text 461 53 .| __ || __|.| |...../ _| |.;
#X text 62 42 Digital Output;
#X text 62 52 ===============;
#X text 198 41 to access the Bela IDE.;
#X text 198 29 Go to webpage http://bela.local/;
#X text 237 232 Task: change the rate of flashing;
#X msg 64 124 out 11 \, in 12;
#X obj 60 234 r bela_digitalIn12;
#X obj 246 268 print digitalIn12;
#X obj 247 353 print digitalIn11;
#X text 63 430 Source: https://github.com/BelaPlatform/Bela/wiki/Example-projects-and-tutorials#switching-an-led-on-and-off
;
#X obj 58 296 == 0;
#X obj 60 269 tgl 15 0 empty empty empty 17 7 0 10 -262144 -1 -1 0
1;
#X obj 60 329 tgl 15 0 empty empty empty 17 7 0 10 -262144 -1 -1 0
1;
#X connect 3 0 18 0;
#X connect 18 0 2 0;
#X connect 19 0 20 0;
#X connect 19 0 24 0;
#X connect 23 0 25 0;
#X connect 23 0 21 0;
#X connect 24 0 23 0;
#X connect 25 0 5 0;
