#N canvas 0 23 1280 751 12;
#X obj 101 178 readsf~;
#X obj 101 211 dac~;
#X obj 101 10 key;
#X floatatom 101 37 5 0 0 0 - - -;
#X text 151 37 ascii code;
#X msg 8 19 \; pd dsp \$1;
#X obj 8 -11 tgl 15 0 empty empty empty 17 7 0 10 -262144 -1 -1 0 1
;
#X obj 41 212 env~;
#X obj 33 314 vu 15 120 empty empty -1 -8 0 10 -66577 -1 1 0;
#X obj 42 255 - 100;
#X msg 101 146 open sounds/DropCoin.wav \, start;
#X msg 305 110 open sounds/psi_35.wav \, start;
#X obj 100 62 sel 100 120 97 119;
#X text 333 146 "d" triggers one sound and "x" triggers another sound
;
#X connect 0 0 1 0;
#X connect 0 0 1 1;
#X connect 0 0 7 0;
#X connect 2 0 3 0;
#X connect 3 0 12 0;
#X connect 6 0 5 0;
#X connect 7 0 9 0;
#X connect 9 0 8 1;
#X connect 10 0 0 0;
#X connect 11 0 0 0;
#X connect 12 0 10 0;
#X connect 12 1 11 0;
