#N canvas 451 196 618 339 12;
#X obj 101 178 readsf~;
#X obj 101 211 dac~;
#X text 46 264 Source: https://www.youtube.com/watch?v=P7N58yw3eQM
;
#X text 44 22 Opening a soundfile with a single click;
#X msg 101 146 open sounds/DropCoin.wav \, 1;
#X text 310 140 adding the trigger message "1" in the same object after
a comma \, which indicates a pause;
#X connect 0 0 1 0;
#X connect 0 0 1 1;
#X connect 4 0 0 0;
