#N canvas 551 244 618 339 12;
#X obj 101 178 readsf~;
#X obj 101 211 dac~;
#X msg 56 143 1;
#X text 46 264 Source: https://www.youtube.com/watch?v=P7N58yw3eQM
;
#X text 44 22 Opening a soundfile with a single click;
#X msg 101 146 open sounds/DropCoin.wav;
#X text 297 147 replacement of \$1 with the name of the file;
#X connect 0 0 1 0;
#X connect 0 0 1 1;
#X connect 2 0 0 0;
#X connect 5 0 0 0;
