#N canvas 131 111 663 479 12;
#X obj 101 178 readsf~;
#X obj 101 211 dac~;
#X obj 228 204 bng 15 250 50 0 empty empty empty 17 7 0 10 -262144
-1 -1;
#X msg 48 174 0;
#X obj 100 51 key;
#X floatatom 100 78 5 0 0 0 - - -;
#X text 150 78 ascii code;
#X msg 101 146 open sounds/DropCoin.wav \, start;
#X obj 99 103 sel 100 120 119 97;
#X msg 8 19 \; pd dsp \$1;
#X obj 8 -11 tgl 15 0 empty empty empty 17 7 0 10 -262144 -1 -1 0 1
;
#X obj 41 212 env~;
#X obj 33 314 vu 15 120 empty empty -1 -8 0 10 -66577 -1 1 0;
#X obj 42 255 - 100;
#X text 180 268 Sources: https://www.youtube.com/watch?v=h7SED2IOnl0
\, https://www.youtube.com/watch?v=-y2SP2B6NxY;
#X text 333 146 This patch simply adds more keys and a visible way
to activate the DSP on;
#X connect 0 0 1 0;
#X connect 0 0 1 1;
#X connect 0 0 11 0;
#X connect 0 1 2 0;
#X connect 2 0 7 0;
#X connect 3 0 0 0;
#X connect 4 0 5 0;
#X connect 5 0 8 0;
#X connect 7 0 0 0;
#X connect 8 0 7 0;
#X connect 8 1 3 0;
#X connect 10 0 9 0;
#X connect 11 0 13 0;
#X connect 13 0 12 1;
