#N canvas 15 352 606 332 12;
#X obj 100 113 openpanel;
#X msg 101 145 open \$1;
#X obj 101 178 readsf~;
#X obj 101 211 dac~;
#X obj 100 80 bng 15 250 50 0 empty empty empty 17 7 0 10 -262144 -1
-1;
#X msg 56 143 1;
#X text 46 264 Source: https://www.youtube.com/watch?v=zoZF_wxMRAA
;
#X text 44 22 Opening a external sound file using a dialog box from
PD;
#X connect 0 0 1 0;
#X connect 1 0 2 0;
#X connect 2 0 3 0;
#X connect 2 0 3 1;
#X connect 4 0 0 0;
#X connect 5 0 2 0;
