#N canvas 330 164 618 339 12;
#X obj 101 178 readsf~;
#X obj 101 211 dac~;
#X obj 228 204 bng 15 250 50 0 empty empty empty 17 7 0 10 -262144
-1 -1;
#X msg 48 174 0;
#X text 46 264 Source: https://www.youtube.com/watch?v=h7SED2IOnl0
;
#X obj 100 51 key;
#X floatatom 100 78 5 0 0 0 - - -;
#X text 150 78 ascii code;
#X msg 101 146 open sounds/DropCoin.wav \, start;
#X text 44 22 Key object to control play \, stop;
#X obj 100 103 sel 100;
#X text 334 140 changed 1 to "start" \, added the key "d" to play;
#X connect 0 0 1 0;
#X connect 0 0 1 1;
#X connect 0 1 2 0;
#X connect 2 0 8 0;
#X connect 3 0 0 0;
#X connect 5 0 6 0;
#X connect 6 0 10 0;
#X connect 8 0 0 0;
#X connect 10 0 8 0;
