#N canvas 513 93 711 604 12;
#X text 58 199 Digital out \, message rate;
#X obj 60 277 tgl 15 0 empty empty empty 17 7 0 10 -262144 -1 -1 1
1;
#X obj 60 227 loadbang;
#X text 88 276 Blink that LED!;
#X obj 64 149 s bela_setDigital;
#X obj 64 102 loadbang;
#X text 134 122 initialise the pin to output;
#X obj 60 252 metro 500;
#X msg 64 124 out 11;
#X obj 60 316 s bela_digitalOut11;
#X text 461 23 ............................;
#X text 461 33 . ____ ._____ _ .......___ .;
#X text 461 43 .| __ )| ____| |....../ _ |.;
#X text 461 63 .| |_) | |___| |___ / ___ |.;
#X text 461 73 .|____/|_____|_____/_/..._|.io;
#X text 461 83 ............................;
#X text 461 53 .| __ || __|.| |...../ _| |.;
#X text 62 42 Digital Output;
#X text 62 52 ===============;
#X text 198 41 to access the Bela IDE.;
#X text 198 29 Go to webpage http://bela.local/;
#X obj 224 455 dac~ 1 2;
#X obj 223 344 sel 0 1;
#X msg 222 371 660;
#X msg 252 371 550;
#X obj 224 429 *~ 0.2;
#X obj 224 403 osc~;
#X text 309 343 Task: play a tone when LED flashes;
#X connect 1 0 9 0;
#X connect 1 0 22 0;
#X connect 2 0 7 0;
#X connect 5 0 8 0;
#X connect 7 0 1 0;
#X connect 8 0 4 0;
#X connect 22 0 23 0;
#X connect 22 1 24 0;
#X connect 23 0 26 0;
#X connect 24 0 26 0;
#X connect 25 0 21 0;
#X connect 25 0 21 1;
#X connect 26 0 25 0;
