#N canvas 232 101 711 604 12;
#X text 58 199 Digital out \, message rate;
#X obj 60 277 tgl 15 0 empty empty empty 17 7 0 10 -262144 -1 -1 1
1;
#X obj 60 227 loadbang;
#X text 88 276 Blink that LED!;
#X obj 64 149 s bela_setDigital;
#X obj 64 102 loadbang;
#X text 134 122 initialise the pin to output;
#X obj 60 252 metro 500;
#X msg 64 124 out 11;
#X obj 60 316 s bela_digitalOut11;
#X text 461 23 ............................;
#X text 461 33 . ____ ._____ _ .......___ .;
#X text 461 43 .| __ )| ____| |....../ _ |.;
#X text 461 63 .| |_) | |___| |___ / ___ |.;
#X text 461 73 .|____/|_____|_____/_/..._|.io;
#X text 461 83 ............................;
#X text 461 53 .| __ || __|.| |...../ _| |.;
#X text 62 42 Digital Output;
#X text 62 52 ===============;
#X text 198 41 to access the Bela IDE.;
#X text 198 29 Go to webpage http://bela.local/;
#X obj 231 346 f;
#X obj 261 346 + 1;
#X obj 231 367 % 6;
#X obj 231 388 sel 0 1 2 3 4 5;
#X msg 290 415 220;
#X msg 320 415 440;
#X msg 350 415 880;
#X msg 380 415 770;
#X obj 229 438 osc~;
#X obj 230 488 dac~ 1 2;
#X obj 230 462 *~ 0.2;
#X text 227 300 Task: create a repeating pattern of flashes with 6
different states by counting and using select;
#X msg 229 414 440;
#X msg 257 414 660;
#X connect 1 0 9 0;
#X connect 1 0 21 0;
#X connect 2 0 7 0;
#X connect 5 0 8 0;
#X connect 7 0 1 0;
#X connect 8 0 4 0;
#X connect 21 0 22 0;
#X connect 21 0 23 0;
#X connect 22 0 21 1;
#X connect 23 0 24 0;
#X connect 24 0 33 0;
#X connect 24 1 34 0;
#X connect 24 2 25 0;
#X connect 24 3 26 0;
#X connect 24 4 27 0;
#X connect 24 5 28 0;
#X connect 25 0 29 0;
#X connect 26 0 29 0;
#X connect 27 0 29 0;
#X connect 28 0 29 0;
#X connect 29 0 31 0;
#X connect 31 0 30 0;
#X connect 31 0 30 1;
#X connect 33 0 29 0;
#X connect 34 0 29 0;
