#N canvas 179 210 450 300 12;
#X text 215 22 ............................;
#X text 215 32 . ____ ._____ _ .......___ .;
#X text 215 42 .| __ )| ____| |....../ _ |.;
#X text 215 62 .| |_) | |___| |___ / ___ |.;
#X text 215 72 .|____/|_____|_____/_/..._|.io;
#X text 215 82 ............................;
#X text 215 52 .| __ || __|.| |...../ _| |.;
#X obj 56 131 adc~;
#X obj 56 223 dac~;
#X obj 57 163 delwrite~ delayname 1000;
#X obj 55 192 delread~ delayname 500;
#X text 35 32 Delay;
#X text 35 42 =====;
#X connect 7 0 9 0;
#X connect 10 0 8 0;
#X connect 10 0 8 1;
