#N canvas 0 23 450 300 12;
#X text 215 22 ............................;
#X text 215 32 . ____ ._____ _ .......___ .;
#X text 215 42 .| __ )| ____| |....../ _ |.;
#X text 215 62 .| |_) | |___| |___ / ___ |.;
#X text 215 72 .|____/|_____|_____/_/..._|.io;
#X text 215 82 ............................;
#X text 215 52 .| __ || __|.| |...../ _| |.;
#X obj 60 98 adc~;
#X obj 60 190 dac~;
#X obj 61 130 delwrite~ delayname 500;
#X obj 59 159 delread~ delayname 150;
#X obj 270 147 *~ 0.6;
#X text 35 32 Feedback + delay;
#X text 35 42 ================;
#X text 53 249 Source: https://guitarextended.wordpress.com/2011/12/12/creating-a-simple-effect-with-pd/
;
#X connect 7 0 9 0;
#X connect 10 0 8 0;
#X connect 10 0 8 1;
#X connect 10 0 11 0;
#X connect 11 0 9 0;
